<svg width="116" height="39" viewBox="0 0 116 39" fill="none" xmlns="http://www.w3.org/2000/svg">
<path d="M0 10C0 4.47715 4.47715 0 10 0H116V38.0226H0V10Z" fill="url(#paint0_radial_2_11408)"/>
<path d="M15.285 6.835V7.625H11.845V10.13H14.785V10.92H11.845V14H10.87V6.835H15.285ZM18.0475 8.855C18.3508 8.855 18.6308 8.90667 18.8875 9.01C19.1442 9.11 19.3658 9.25667 19.5525 9.45C19.7392 9.64 19.8842 9.87667 19.9875 10.16C20.0942 10.44 20.1475 10.76 20.1475 11.12C20.1475 11.26 20.1325 11.3533 20.1025 11.4C20.0725 11.4467 20.0158 11.47 19.9325 11.47H16.5625C16.5692 11.79 16.6125 12.0683 16.6925 12.305C16.7725 12.5417 16.8825 12.74 17.0225 12.9C17.1625 13.0567 17.3292 13.175 17.5225 13.255C17.7158 13.3317 17.9325 13.37 18.1725 13.37C18.3958 13.37 18.5875 13.345 18.7475 13.295C18.9108 13.2417 19.0508 13.185 19.1675 13.125C19.2842 13.065 19.3808 13.01 19.4575 12.96C19.5375 12.9067 19.6058 12.88 19.6625 12.88C19.7358 12.88 19.7925 12.9083 19.8325 12.965L20.0825 13.29C19.9725 13.4233 19.8408 13.54 19.6875 13.64C19.5342 13.7367 19.3692 13.8167 19.1925 13.88C19.0192 13.9433 18.8392 13.99 18.6525 14.02C18.4658 14.0533 18.2808 14.07 18.0975 14.07C17.7475 14.07 17.4242 14.0117 17.1275 13.895C16.8342 13.775 16.5792 13.6017 16.3625 13.375C16.1492 13.145 15.9825 12.8617 15.8625 12.525C15.7425 12.1883 15.6825 11.8017 15.6825 11.365C15.6825 11.0117 15.7358 10.6817 15.8425 10.375C15.9525 10.0683 16.1092 9.80333 16.3125 9.58C16.5158 9.35333 16.7642 9.17667 17.0575 9.05C17.3508 8.92 17.6808 8.855 18.0475 8.855ZM18.0675 9.51C17.6375 9.51 17.2992 9.635 17.0525 9.885C16.8058 10.1317 16.6525 10.475 16.5925 10.915H19.3475C19.3475 10.7083 19.3192 10.52 19.2625 10.35C19.2058 10.1767 19.1225 10.0283 19.0125 9.905C18.9025 9.77833 18.7675 9.68167 18.6075 9.615C18.4508 9.545 18.2708 9.51 18.0675 9.51ZM22.2766 8.935V14H21.3866V8.935H22.2766ZM22.4766 7.345C22.4766 7.43167 22.4583 7.51333 22.4216 7.59C22.3883 7.66333 22.3416 7.73 22.2816 7.79C22.225 7.84667 22.1583 7.89167 22.0816 7.925C22.005 7.95833 21.9233 7.975 21.8366 7.975C21.75 7.975 21.6683 7.95833 21.5916 7.925C21.5183 7.89167 21.4516 7.84667 21.3916 7.79C21.335 7.73 21.29 7.66333 21.2566 7.59C21.2233 7.51333 21.2066 7.43167 21.2066 7.345C21.2066 7.25833 21.2233 7.17667 21.2566 7.1C21.29 7.02 21.335 6.95167 21.3916 6.895C21.4516 6.835 21.5183 6.78833 21.5916 6.755C21.6683 6.72167 21.75 6.705 21.8366 6.705C21.9233 6.705 22.005 6.72167 22.0816 6.755C22.1583 6.78833 22.225 6.835 22.2816 6.895C22.3416 6.95167 22.3883 7.02 22.4216 7.1C22.4583 7.17667 22.4766 7.25833 22.4766 7.345ZM25.3802 14.08C24.9802 14.08 24.6719 13.9683 24.4552 13.745C24.2419 13.5217 24.1352 13.2 24.1352 12.78V9.68H23.5252C23.4719 9.68 23.4269 9.665 23.3902 9.635C23.3536 9.60167 23.3352 9.55167 23.3352 9.485V9.13L24.1652 9.025L24.3702 7.46C24.3769 7.41 24.3986 7.37 24.4352 7.34C24.4719 7.30667 24.5186 7.29 24.5752 7.29H25.0252V9.035H26.4752V9.68H25.0252V12.72C25.0252 12.9333 25.0769 13.0917 25.1802 13.195C25.2836 13.2983 25.4169 13.35 25.5802 13.35C25.6736 13.35 25.7536 13.3383 25.8202 13.315C25.8902 13.2883 25.9502 13.26 26.0002 13.23C26.0502 13.2 26.0919 13.1733 26.1252 13.15C26.1619 13.1233 26.1936 13.11 26.2202 13.11C26.2669 13.11 26.3086 13.1383 26.3452 13.195L26.6052 13.62C26.4519 13.7633 26.2669 13.8767 26.0502 13.96C25.8336 14.04 25.6102 14.08 25.3802 14.08ZM29.6257 8.855C29.9957 8.855 30.329 8.91667 30.6257 9.04C30.9257 9.16333 31.179 9.33833 31.3857 9.565C31.5957 9.79167 31.7557 10.0667 31.8657 10.39C31.979 10.71 32.0357 11.0683 32.0357 11.465C32.0357 11.865 31.979 12.225 31.8657 12.545C31.7557 12.865 31.5957 13.1383 31.3857 13.365C31.179 13.5917 30.9257 13.7667 30.6257 13.89C30.329 14.01 29.9957 14.07 29.6257 14.07C29.2557 14.07 28.9207 14.01 28.6207 13.89C28.324 13.7667 28.0707 13.5917 27.8607 13.365C27.6507 13.1383 27.489 12.865 27.3757 12.545C27.2624 12.225 27.2057 11.865 27.2057 11.465C27.2057 11.0683 27.2624 10.71 27.3757 10.39C27.489 10.0667 27.6507 9.79167 27.8607 9.565C28.0707 9.33833 28.324 9.16333 28.6207 9.04C28.9207 8.91667 29.2557 8.855 29.6257 8.855ZM29.6257 13.375C30.1257 13.375 30.499 13.2083 30.7457 12.875C30.9924 12.5383 31.1157 12.07 31.1157 11.47C31.1157 10.8667 30.9924 10.3967 30.7457 10.06C30.499 9.72333 30.1257 9.555 29.6257 9.555C29.3724 9.555 29.1524 9.59833 28.9657 9.685C28.779 9.77167 28.6224 9.89667 28.4957 10.06C28.3724 10.2233 28.279 10.425 28.2157 10.665C28.1557 10.9017 28.1257 11.17 28.1257 11.47C28.1257 11.77 28.1557 12.0383 28.2157 12.275C28.279 12.5117 28.3724 12.7117 28.4957 12.875C28.6224 13.035 28.779 13.1583 28.9657 13.245C29.1524 13.3317 29.3724 13.375 29.6257 13.375ZM38.5209 9.835C38.4943 9.87167 38.4676 9.9 38.4409 9.92C38.4143 9.94 38.3759 9.95 38.3259 9.95C38.2759 9.95 38.2209 9.93 38.1609 9.89C38.1043 9.84667 38.0309 9.8 37.9409 9.75C37.8509 9.7 37.7409 9.655 37.6109 9.615C37.4843 9.57167 37.3276 9.55 37.1409 9.55C36.8943 9.55 36.6759 9.595 36.4859 9.685C36.2959 9.77167 36.1359 9.89833 36.0059 10.065C35.8793 10.2317 35.7826 10.4333 35.7159 10.67C35.6526 10.9067 35.6209 11.1717 35.6209 11.465C35.6209 11.7717 35.6559 12.045 35.7259 12.285C35.7959 12.5217 35.8943 12.7217 36.0209 12.885C36.1476 13.045 36.3009 13.1683 36.4809 13.255C36.6643 13.3383 36.8693 13.38 37.0959 13.38C37.3126 13.38 37.4909 13.355 37.6309 13.305C37.7709 13.2517 37.8876 13.1933 37.9809 13.13C38.0743 13.0667 38.1509 13.01 38.2109 12.96C38.2709 12.9067 38.3309 12.88 38.3909 12.88C38.4676 12.88 38.5243 12.9083 38.5609 12.965L38.8109 13.29C38.5909 13.56 38.3159 13.7583 37.9859 13.885C37.6559 14.0083 37.3076 14.07 36.9409 14.07C36.6243 14.07 36.3293 14.0117 36.0559 13.895C35.7859 13.7783 35.5509 13.61 35.3509 13.39C35.1509 13.1667 34.9926 12.8933 34.8759 12.57C34.7626 12.2467 34.7059 11.8783 34.7059 11.465C34.7059 11.0883 34.7576 10.74 34.8609 10.42C34.9676 10.1 35.1209 9.825 35.3209 9.595C35.5243 9.36167 35.7743 9.18 36.0709 9.05C36.3676 8.92 36.7076 8.855 37.0909 8.855C37.4443 8.855 37.7576 8.91333 38.0309 9.03C38.3043 9.14333 38.5459 9.305 38.7559 9.515L38.5209 9.835ZM41.7839 8.855C42.1539 8.855 42.4872 8.91667 42.7839 9.04C43.0839 9.16333 43.3372 9.33833 43.5439 9.565C43.7539 9.79167 43.9139 10.0667 44.0239 10.39C44.1372 10.71 44.1939 11.0683 44.1939 11.465C44.1939 11.865 44.1372 12.225 44.0239 12.545C43.9139 12.865 43.7539 13.1383 43.5439 13.365C43.3372 13.5917 43.0839 13.7667 42.7839 13.89C42.4872 14.01 42.1539 14.07 41.7839 14.07C41.4139 14.07 41.0789 14.01 40.7789 13.89C40.4822 13.7667 40.2289 13.5917 40.0189 13.365C39.8089 13.1383 39.6472 12.865 39.5339 12.545C39.4206 12.225 39.3639 11.865 39.3639 11.465C39.3639 11.0683 39.4206 10.71 39.5339 10.39C39.6472 10.0667 39.8089 9.79167 40.0189 9.565C40.2289 9.33833 40.4822 9.16333 40.7789 9.04C41.0789 8.91667 41.4139 8.855 41.7839 8.855ZM41.7839 13.375C42.2839 13.375 42.6572 13.2083 42.9039 12.875C43.1506 12.5383 43.2739 12.07 43.2739 11.47C43.2739 10.8667 43.1506 10.3967 42.9039 10.06C42.6572 9.72333 42.2839 9.555 41.7839 9.555C41.5306 9.555 41.3106 9.59833 41.1239 9.685C40.9372 9.77167 40.7806 9.89667 40.6539 10.06C40.5306 10.2233 40.4372 10.425 40.3739 10.665C40.3139 10.9017 40.2839 11.17 40.2839 11.47C40.2839 11.77 40.3139 12.0383 40.3739 12.275C40.4372 12.5117 40.5306 12.7117 40.6539 12.875C40.7806 13.035 40.9372 13.1583 41.1239 13.245C41.3106 13.3317 41.5306 13.375 41.7839 13.375ZM45.2905 14V8.935H45.8205C45.9472 8.935 46.0272 8.99667 46.0605 9.12L46.1255 9.64C46.3122 9.41 46.5205 9.22167 46.7505 9.075C46.9839 8.92833 47.2539 8.855 47.5605 8.855C47.9039 8.855 48.1805 8.95 48.3905 9.14C48.6039 9.33 48.7572 9.58667 48.8505 9.91C48.9205 9.72667 49.0122 9.56833 49.1255 9.435C49.2422 9.30167 49.3722 9.19167 49.5155 9.105C49.6589 9.01833 49.8105 8.955 49.9705 8.915C50.1339 8.875 50.2989 8.855 50.4655 8.855C50.7322 8.855 50.9689 8.89833 51.1755 8.985C51.3855 9.06833 51.5622 9.19167 51.7055 9.355C51.8522 9.51833 51.9639 9.72 52.0405 9.96C52.1172 10.1967 52.1555 10.4683 52.1555 10.775V14H51.2655V10.775C51.2655 10.3783 51.1789 10.0783 51.0055 9.875C50.8322 9.66833 50.5805 9.565 50.2505 9.565C50.1039 9.565 49.9639 9.59167 49.8305 9.645C49.7005 9.695 49.5855 9.77 49.4855 9.87C49.3855 9.97 49.3055 10.0967 49.2455 10.25C49.1889 10.4 49.1605 10.575 49.1605 10.775V14H48.2705V10.775C48.2705 10.3683 48.1889 10.065 48.0255 9.865C47.8622 9.665 47.6239 9.565 47.3105 9.565C47.0905 9.565 46.8855 9.625 46.6955 9.745C46.5089 9.86167 46.3372 10.0217 46.1805 10.225V14H45.2905Z" fill="white"/>
<g clip-path="url(#clip0_2_11408)">
<path d="M73.1973 23.4983H76.7322C77.6605 23.4983 78.3746 23.7125 78.91 24.1767C79.4101 24.6408 79.6958 25.2835 79.6958 26.1048C79.6958 26.926 79.4457 27.5687 78.91 28.0328C78.3746 28.497 77.6605 28.7112 76.7322 28.7112H74.2327V32.3531H73.1973V23.4983ZM76.625 27.89C77.9817 27.89 78.6603 27.283 78.6603 26.1048C78.6603 24.9265 77.9817 24.3552 76.625 24.3552H74.2327V27.89H76.625Z" fill="white"/>
<path d="M85.0511 26.6763C85.444 27.0691 85.6224 27.6761 85.6224 28.4973V32.3534H84.6226V31.318C84.4797 31.675 84.23 31.9607 83.9087 32.1392C83.5871 32.3534 83.1946 32.4248 82.7661 32.4248C82.3732 32.4248 82.0163 32.3534 81.659 32.1749C81.3377 32.0321 81.052 31.7822 80.8736 31.4965C80.6951 31.2109 80.5879 30.8895 80.5879 30.5682C80.5879 30.104 80.6951 29.747 80.9452 29.497C81.1949 29.2471 81.5521 29.0685 82.1235 28.9257C82.6588 28.8186 83.4086 28.7472 84.3729 28.7472H84.6585V28.3187C84.6585 27.8189 84.5513 27.4261 84.3369 27.2119C84.1228 26.9977 83.8015 26.8548 83.3018 26.8548C82.5876 26.8548 81.909 27.0691 81.1949 27.4975L80.8379 26.7477C81.1592 26.5335 81.5521 26.355 81.9806 26.2121C82.4448 26.0693 82.8733 25.9979 83.3018 25.9979C84.0872 26.105 84.6585 26.2836 85.0511 26.6763ZM84.1584 31.1395C84.4797 30.7824 84.6585 30.3539 84.6585 29.8184V29.4613H84.4441C83.6943 29.4613 83.123 29.497 82.7661 29.5684C82.3732 29.6399 82.0875 29.747 81.9447 29.8898C81.7662 30.0326 81.695 30.2468 81.695 30.5325C81.695 30.8538 81.8018 31.1395 82.0519 31.3537C82.3019 31.5679 82.5876 31.675 82.9445 31.675C83.4086 31.675 83.8371 31.4965 84.1584 31.1395Z" fill="white"/>
<path d="M93.0141 26.2479V31.9607C93.0141 32.889 92.7641 33.5674 92.3 34.0316C91.8358 34.4958 91.1216 34.7457 90.1934 34.7457C89.1223 34.7457 88.2296 34.46 87.4798 33.9244L87.8368 33.1746C88.2653 33.4603 88.6222 33.6388 89.0151 33.7459C89.372 33.8531 89.7649 33.9244 90.229 33.9244C90.8004 33.9244 91.2645 33.7816 91.5502 33.4603C91.8358 33.139 92.0143 32.6748 92.0143 32.0678V30.9967C91.8358 31.3894 91.5501 31.7107 91.1929 31.8893C90.836 32.1035 90.4075 32.2106 89.9077 32.2106C89.372 32.2106 88.9079 32.0678 88.4793 31.8179C88.0508 31.5679 87.7295 31.2109 87.5155 30.7467C87.301 30.2825 87.1582 29.747 87.1582 29.14C87.1582 28.533 87.2654 27.9974 87.5155 27.5332C87.7295 27.0691 88.0868 26.712 88.4793 26.4621C88.9079 26.2122 89.372 26.0693 89.9077 26.0693C90.4075 26.0693 90.836 26.1765 91.1929 26.3907C91.5501 26.6049 91.8358 26.8906 92.0143 27.2833V26.2122H93.0141V26.2479ZM91.4786 30.7467C91.7998 30.354 91.9787 29.8184 91.9787 29.14C91.9787 28.4616 91.7998 27.926 91.4786 27.5332C91.1573 27.1405 90.6931 26.962 90.0862 26.962C89.4792 26.962 89.0151 27.1405 88.6938 27.5332C88.3365 27.926 88.1937 28.4616 88.1937 29.14C88.1937 29.8184 88.3725 30.354 88.6938 30.7467C89.0507 31.1395 89.5148 31.318 90.0862 31.318C90.6575 31.3537 91.1216 31.1395 91.4786 30.7467Z" fill="white"/>
<path d="M100.049 29.4614H95.5503C95.5859 30.1755 95.7647 30.7111 96.1216 31.0681C96.4785 31.4252 96.9786 31.6037 97.6212 31.6037C98.3354 31.6037 98.978 31.3538 99.585 30.8539L99.9422 31.6037C99.6566 31.8536 99.3353 32.0679 98.9068 32.2107C98.4782 32.3535 98.0497 32.4249 97.6212 32.4249C96.6573 32.4249 95.9075 32.1392 95.3718 31.568C94.8361 30.9967 94.5508 30.2112 94.5508 29.2472C94.5508 28.6045 94.6576 28.0689 94.9077 27.569C95.1577 27.0692 95.479 26.7121 95.9432 26.4265C96.3717 26.1408 96.8714 26.0337 97.4428 26.0337C98.2638 26.0337 98.9068 26.2836 99.3709 26.8192C99.835 27.3548 100.049 28.1046 100.049 29.0329V29.4614ZM96.1572 27.3905C95.8359 27.7118 95.6575 28.2117 95.5859 28.8187H99.1564C99.1564 28.2117 98.978 27.7118 98.6923 27.3905C98.4066 27.0692 97.9781 26.8906 97.4428 26.8906C96.907 26.8906 96.4785 27.0692 96.1572 27.3905Z" fill="white"/>
<path d="M101.156 31.675L101.513 30.9252C101.835 31.1752 102.192 31.3894 102.513 31.4965C102.87 31.6036 103.227 31.675 103.656 31.675C104.12 31.675 104.441 31.6036 104.691 31.4251C104.941 31.2823 105.048 31.0323 105.048 30.7467C105.048 30.4968 104.977 30.3182 104.798 30.1754C104.655 30.0326 104.37 29.9255 104.013 29.8184L102.977 29.5684C102.442 29.4613 102.049 29.2471 101.763 28.9615C101.478 28.6758 101.335 28.3188 101.335 27.8903C101.335 27.3547 101.549 26.8906 101.977 26.5692C102.406 26.2479 102.977 26.0693 103.691 26.0693C104.12 26.0693 104.512 26.1408 104.905 26.2836C105.298 26.4264 105.619 26.6049 105.869 26.8906L105.512 27.6404C104.941 27.1762 104.334 26.9263 103.656 26.9263C103.227 26.9263 102.906 26.9977 102.656 27.1762C102.406 27.3547 102.299 27.569 102.299 27.8546C102.299 28.1045 102.37 28.283 102.513 28.4259C102.656 28.5687 102.906 28.6758 103.227 28.7472L104.263 28.9972C104.834 29.14 105.262 29.3185 105.548 29.6042C105.834 29.8898 105.976 30.2469 105.976 30.6753C105.976 31.2109 105.762 31.6393 105.334 31.9607C104.905 32.282 104.298 32.4248 103.548 32.4248C102.585 32.4606 101.763 32.2106 101.156 31.675Z" fill="white"/>
<path d="M30.3166 26.1402C29.6025 26.1402 28.9598 26.3902 28.5313 26.9258H28.4956V23.9265C28.4956 23.8908 28.4599 23.8551 28.4242 23.8551H26.8175C26.7818 23.8551 26.7461 23.8908 26.7461 23.9265V32.3172C26.7461 32.3529 26.7818 32.3886 26.8175 32.3886H28.4242C28.4599 32.3886 28.4956 32.3529 28.4956 32.3172V28.4254C28.4956 27.8184 29.0669 27.6041 29.3882 27.6041C29.7096 27.6041 30.2095 27.747 30.2095 28.2111V32.2815C30.2095 32.3172 30.2452 32.3529 30.2809 32.3529H31.8876C31.9233 32.3529 31.959 32.3172 31.959 32.2815V28.0683C31.9947 26.9971 31.5663 26.1402 30.3166 26.1402ZM35.6366 26.1402C33.4943 26.1402 32.7445 27.3899 32.7445 29.318C32.7445 31.2818 33.4943 32.4957 35.6366 32.4957C37.7789 32.4957 38.5645 31.2818 38.5645 29.318C38.5645 27.3899 37.8147 26.1402 35.6366 26.1402ZM35.6366 31.0318C34.7797 31.0318 34.6369 30.3891 34.6369 29.3537C34.6369 28.3183 34.7797 27.6756 35.6366 27.6756C36.4936 27.6756 36.6364 28.3183 36.6364 29.3537C36.6364 30.3891 36.4936 31.0318 35.6366 31.0318ZM42.6705 26.2831H41.3851V24.6406C41.3851 24.6049 41.3494 24.5692 41.3137 24.5692H40.4568C40.4211 24.5692 40.3854 24.6049 40.3854 24.6049C40.3854 24.6406 39.8498 26.2473 39.8498 26.2473C39.8498 26.2473 38.8858 26.533 38.8501 26.533C38.8144 26.533 38.8144 26.5687 38.8144 26.6044V27.6398C38.8144 27.6756 38.8501 27.7113 38.8858 27.7113H39.6356V30.6034C39.6356 31.6745 40.1712 32.46 41.4923 32.46C42.0278 32.46 42.2778 32.3529 42.7419 32.1744C42.7419 32.1744 42.7776 32.1387 42.7776 32.103V30.9247C42.7776 30.889 42.7419 30.8533 42.7062 30.8533H41.9565C41.5637 30.8533 41.4209 30.6748 41.4209 30.3891V27.6756H42.7062C42.7419 27.6756 42.7776 27.6398 42.7776 27.6041V26.2831C42.7419 26.3188 42.7063 26.2831 42.6705 26.2831ZM67.8781 27.747C67.9141 27.747 67.9497 27.7113 67.9497 27.6756V26.3545C67.9497 26.3188 67.9141 26.2831 67.8781 26.2831H66.5929V24.6406C66.5929 24.6049 66.5573 24.5692 66.5213 24.5692H65.6647C65.6287 24.5692 65.5931 24.6049 65.5931 24.6049C65.5931 24.6406 65.0577 26.2473 65.0577 26.2473C65.0577 26.2473 64.0935 26.533 64.0579 26.533C64.0222 26.533 64.0222 26.5687 64.0222 26.6044V27.6398C64.0222 27.6756 64.0579 27.7113 64.0935 27.7113H64.8433V30.6034C64.8433 31.6745 65.379 32.46 66.7002 32.46C67.2355 32.46 67.4856 32.3529 67.9497 32.1744C67.9497 32.1744 67.9853 32.1387 67.9853 32.103V30.9247C67.9853 30.889 67.9497 30.8533 67.9141 30.8533H67.1643C66.7714 30.8533 66.6286 30.6748 66.6286 30.3891V27.6756H67.8781V27.747ZM63.1652 26.176C62.4867 26.2117 61.6656 26.4973 61.2727 27.2828C61.2727 27.2828 61.0943 26.3902 61.0943 26.3545C61.0943 26.3188 61.0587 26.2831 61.023 26.2831H59.5947C59.559 26.2831 59.5234 26.3188 59.5234 26.3545V32.3172C59.5234 32.3529 59.559 32.3886 59.5947 32.3886H61.2015C61.2371 32.3886 61.2727 32.3529 61.2727 32.3172V28.9609C61.2727 28.4254 61.6656 27.9612 62.7723 27.9612H63.2008C63.2365 27.9612 63.2724 27.9255 63.2724 27.8898V26.2473C63.2724 26.176 63.2365 26.1402 63.1652 26.176ZM56.0241 26.1402C55.2743 26.1402 54.5245 26.2473 53.6679 26.4259C53.6319 26.4259 53.5963 26.4616 53.5963 26.4973V27.6041C53.5963 27.6398 53.6319 27.6756 53.6679 27.6756C53.7035 27.6756 54.3461 27.6398 54.953 27.6398C56.3814 27.6398 56.7383 27.747 56.7383 28.2468V28.6396H55.2387C54.3817 28.6396 53.2034 28.9609 53.2034 30.532C53.2034 31.5674 53.8103 32.46 54.953 32.46C55.6316 32.46 56.2026 32.2815 56.6311 31.7459C56.6671 31.8887 56.7739 32.2458 56.7739 32.2815C56.7739 32.3172 56.8095 32.3529 56.8455 32.3529H58.3807C58.4164 32.3529 58.452 32.3172 58.452 32.2815V28.2111C58.488 26.533 57.5593 26.1402 56.0241 26.1402ZM56.7383 30.2106C56.7383 30.9604 56.1313 31.2104 55.7384 31.2104C55.3459 31.2104 54.9174 31.0675 54.9174 30.4962C54.9174 29.9607 55.2387 29.7464 55.7744 29.7464H56.7383V30.2106ZM50.8471 26.1402C50.1329 26.1402 49.3831 26.3902 48.919 27.14H48.8834C48.6689 26.533 48.2404 26.1402 47.3834 26.1402C46.6696 26.1402 46.0266 26.3902 45.5985 26.9258H45.5625C45.5625 26.9258 45.3841 26.3545 45.3841 26.3188C45.3841 26.2831 45.3484 26.2831 45.3128 26.2831H43.8488C43.8131 26.2831 43.7774 26.3188 43.7774 26.3545V32.3172C43.7774 32.3529 43.8131 32.3886 43.8488 32.3886H45.4557C45.4913 32.3886 45.5269 32.3529 45.5269 32.3172V28.4611C45.5269 27.8541 46.0982 27.6041 46.4195 27.6041C46.7764 27.6041 47.2409 27.7827 47.2409 28.2468V32.2815C47.2409 32.3172 47.2765 32.3529 47.3122 32.3529H48.919C48.9546 32.3529 48.9902 32.3172 48.9902 32.2815V28.3539C49.0259 27.8184 49.5616 27.5685 49.9185 27.5685C50.2401 27.5685 50.6683 27.747 50.6683 28.2111V32.2458C50.6683 32.2815 50.7043 32.3172 50.7399 32.3172H52.3467C52.3823 32.3172 52.4179 32.2815 52.4179 32.2458V28.0683C52.5252 26.9971 52.0967 26.1402 50.8471 26.1402Z" fill="white"/>
<path d="M23.3894 28.7113C23.4608 27.0688 22.8895 24.3909 21.4613 22.1772C21.4256 22.1058 21.3542 22.1415 21.3899 22.2129C21.497 22.5343 21.497 23.1412 20.9615 23.1056C20.0331 23.0341 20.9614 21.0347 18.8905 19.6422C18.8549 19.6065 18.7834 19.6422 18.8191 19.7136C18.962 19.9992 19.0691 20.8204 18.712 21.1061C18.4621 21.356 17.9622 21.2846 17.4981 20.5348C16.7126 19.2851 16.9982 17.9283 17.4981 17.0714C17.5337 17 17.4981 17 17.4266 17C14.5703 17.964 14.0347 21.3203 13.4277 22.57C13.3206 22.7842 13.2492 22.8913 13.0706 22.8913C12.5351 22.8556 12.9278 21.7488 13.1063 21.356C13.142 21.2846 13.0706 21.2846 13.0349 21.3203C11.571 22.8556 10.2856 25.4978 10.0357 27.9257C10.0357 27.8543 10.0714 27.8186 10.0714 27.7472C10.0357 27.9257 10.0357 28.1043 10 28.3185C10 28.3899 10 28.4613 10 28.5327C10 28.6041 10 28.7113 10 28.8184C10 32.496 12.9992 35.4952 16.6768 35.4952C20.3545 35.4952 23.3537 32.496 23.3537 28.8184C23.3894 28.747 23.3894 28.747 23.3894 28.7113ZM16.7126 31.889C14.9987 31.889 13.6062 30.4965 13.6062 28.7826C13.6062 27.0688 14.9987 25.6763 16.7126 25.6763C18.4264 25.6763 19.8189 27.0688 19.8189 28.7826C19.7832 30.4965 18.4264 31.889 16.7126 31.889Z" fill="white"/>
</g>
<defs>
<radialGradient id="paint0_radial_2_11408" cx="0" cy="0" r="1" gradientUnits="userSpaceOnUse" gradientTransform="translate(57.9999 19.0113) rotate(90) scale(19.0113 57.9999)">
<stop stop-opacity="0.6"/>
<stop offset="1"/>
</radialGradient>
<clipPath id="clip0_2_11408">
<rect width="96" height="18.5158" fill="white" transform="translate(10 17)"/>
</clipPath>
</defs>
</svg>
